<svg width="1001" height="751" viewBox="0 0 1001 751" fill="none" xmlns="http://www.w3.org/2000/svg">
<path d="M957.822 50.5H785.855C763.218 50.5 741.507 41.5072 725.5 25.5C709.493 9.49277 687.782 0.5 665.145 0.5H43.1777C31.8589 0.5 21.0036 4.99638 13 13C4.99638 21.0036 0.5 31.8588 0.5 43.1777V657.822C0.5 669.141 4.99638 679.996 13 688C21.0036 696.004 31.8589 700.5 43.1777 700.5H215.145C237.782 700.5 259.493 709.493 275.5 725.5C291.507 741.507 313.218 750.5 335.855 750.5H957.822C969.141 750.5 979.996 746.004 988 738C996.004 729.996 1000.5 719.141 1000.5 707.822V93.1777C1000.5 81.8588 996.004 71.0036 988 63C979.996 54.9964 969.141 50.5 957.822 50.5Z" stroke="black"/>
</svg>
